G04*
G04 #@! TF.GenerationSoftware,Altium Limited,Altium Designer,24.10.1 (45)*
G04*
G04 Layer_Physical_Order=1*
G04 Layer_Color=255*
%FSLAX25Y25*%
%MOIN*%
G70*
G04*
G04 #@! TF.SameCoordinates,3451842A-4D4D-41BC-B275-7F58107C68D5*
G04*
G04*
G04 #@! TF.FilePolarity,Positive*
G04*
G01*
G75*
%ADD10C,0.01000*%
%ADD14R,0.01181X0.01870*%
%ADD15R,0.03937X0.14961*%
%ADD16R,0.05512X0.04724*%
%ADD17R,0.04724X0.05512*%
%ADD18R,0.05906X0.05118*%
%ADD19R,0.05118X0.05906*%
%ADD30O,0.05906X0.07874*%
%ADD31R,0.05906X0.07874*%
%ADD32C,0.02500*%
%ADD33C,0.05000*%
G36*
X139500Y473500D02*
X141000Y472000D01*
X147047D01*
Y469240D01*
X151000D01*
X154953D01*
Y472000D01*
X157500D01*
X161000Y468500D01*
Y466000D01*
X154953D01*
Y468240D01*
X151000D01*
X147047D01*
Y466000D01*
X132555D01*
X132541Y466020D01*
X133076Y467020D01*
X136193D01*
Y475000D01*
X133224D01*
Y476000D01*
X136193D01*
Y483980D01*
X137185Y484000D01*
X139500D01*
Y473500D01*
D02*
G37*
G36*
X230250Y412500D02*
X227750Y410000D01*
X171250D01*
Y433547D01*
X173240D01*
Y437500D01*
Y441453D01*
X171250D01*
Y445047D01*
X173240D01*
Y449000D01*
Y452953D01*
X171250D01*
Y459766D01*
X171575D01*
Y461701D01*
X171953D01*
Y462201D01*
X173543D01*
Y463636D01*
X172370D01*
X172182Y464024D01*
X172821Y465000D01*
X182250D01*
X182750Y465500D01*
Y465799D01*
X183244Y466595D01*
X186500D01*
Y469957D01*
X187500D01*
Y466595D01*
X190750D01*
Y466000D01*
X191750Y465000D01*
X212750D01*
X212405Y468683D01*
X212500Y469039D01*
Y469961D01*
X212262Y470851D01*
X212190Y470975D01*
X211250Y481000D01*
X175453D01*
Y483240D01*
X171500D01*
X167547D01*
Y481000D01*
X165750D01*
Y495000D01*
X167250Y496500D01*
X230250D01*
Y412500D01*
D02*
G37*
G36*
X125517Y484692D02*
X124814Y483980D01*
X124276D01*
Y475500D01*
Y467020D01*
X125747D01*
X125808Y462310D01*
X124809Y462172D01*
X124761Y462351D01*
X124301Y463149D01*
X123649Y463801D01*
X122851Y464261D01*
X122000Y464490D01*
Y461000D01*
Y457511D01*
X122851Y457738D01*
X123649Y458199D01*
X124301Y458851D01*
X124761Y459649D01*
X124838Y459936D01*
X125840Y459811D01*
X125894Y455664D01*
X125191Y454953D01*
X124260D01*
Y451000D01*
Y447047D01*
X126006D01*
X126491Y409712D01*
X125788Y409000D01*
X105000D01*
X104500Y409500D01*
Y486000D01*
X125500D01*
X125517Y484692D01*
D02*
G37*
G36*
X163054Y454637D02*
X163070Y454500D01*
X162971Y454000D01*
X162980Y453953D01*
X162701Y452953D01*
X162701D01*
Y449500D01*
X166260D01*
Y449000D01*
X166760D01*
Y445047D01*
X168000D01*
Y441453D01*
X166760D01*
Y437500D01*
Y433547D01*
X168000D01*
Y430572D01*
X167000Y430304D01*
X166801Y430649D01*
X166149Y431301D01*
X165351Y431762D01*
X164500Y431989D01*
Y428500D01*
Y425010D01*
X165351Y425239D01*
X166149Y425699D01*
X166801Y426351D01*
X167000Y426696D01*
X168000Y426428D01*
Y410500D01*
X167000Y409500D01*
X148000D01*
Y453500D01*
X150000Y455500D01*
X162496D01*
X163054Y454637D01*
D02*
G37*
G36*
X142500Y456000D02*
Y411000D01*
X140500Y409000D01*
X129500D01*
Y447047D01*
X130740D01*
Y451000D01*
Y454953D01*
X129500D01*
Y457000D01*
X131500Y459000D01*
X139500D01*
X142500Y456000D01*
D02*
G37*
%LPC*%
G36*
X175453Y487299D02*
X172000D01*
Y484240D01*
X175453D01*
Y487299D01*
D02*
G37*
G36*
X171000D02*
X167547D01*
Y484240D01*
X171000D01*
Y487299D01*
D02*
G37*
G36*
X173543Y461201D02*
X172453D01*
Y459766D01*
X173543D01*
Y461201D01*
D02*
G37*
G36*
X177299Y452953D02*
X174240D01*
Y449500D01*
X177299D01*
Y452953D01*
D02*
G37*
G36*
Y448500D02*
X174240D01*
Y445047D01*
X177299D01*
Y448500D01*
D02*
G37*
G36*
Y441453D02*
X174240D01*
Y438000D01*
X177299D01*
Y441453D01*
D02*
G37*
G36*
Y437000D02*
X174240D01*
Y433547D01*
X177299D01*
Y437000D01*
D02*
G37*
G36*
X123276Y483980D02*
X120807D01*
Y476000D01*
X123276D01*
Y483980D01*
D02*
G37*
G36*
Y475000D02*
X120807D01*
Y467020D01*
X123276D01*
Y475000D01*
D02*
G37*
G36*
X121000Y464490D02*
X120149Y464261D01*
X119351Y463801D01*
X118699Y463149D01*
X118238Y462351D01*
X118010Y461500D01*
X121000D01*
Y464490D01*
D02*
G37*
G36*
Y460500D02*
X118010D01*
X118238Y459649D01*
X118699Y458851D01*
X119351Y458199D01*
X120149Y457738D01*
X121000Y457511D01*
Y460500D01*
D02*
G37*
G36*
X123260Y454953D02*
X120201D01*
Y451500D01*
X123260D01*
Y454953D01*
D02*
G37*
G36*
Y450500D02*
X120201D01*
Y447047D01*
X123260D01*
Y450500D01*
D02*
G37*
G36*
X165760Y448500D02*
X162701D01*
Y445047D01*
X165760D01*
Y448500D01*
D02*
G37*
G36*
Y441453D02*
X162701D01*
Y438000D01*
X165760D01*
Y441453D01*
D02*
G37*
G36*
Y437000D02*
X162701D01*
Y433547D01*
X165760D01*
Y437000D01*
D02*
G37*
G36*
X163500Y431989D02*
X162649Y431762D01*
X161851Y431301D01*
X161199Y430649D01*
X160739Y429851D01*
X160511Y429000D01*
X163500D01*
Y431989D01*
D02*
G37*
G36*
Y428000D02*
X160511D01*
X160739Y427149D01*
X161199Y426351D01*
X161851Y425699D01*
X162649Y425239D01*
X163500Y425010D01*
Y428000D01*
D02*
G37*
G36*
X134799Y454953D02*
X131740D01*
Y451500D01*
X134799D01*
Y454953D01*
D02*
G37*
G36*
Y450500D02*
X131740D01*
Y447047D01*
X134799D01*
Y450500D01*
D02*
G37*
%LPD*%
D10*
X161000Y453000D02*
X162000Y454000D01*
X164500D01*
X145953Y407453D02*
X152973Y414473D01*
X145953Y403953D02*
Y407453D01*
X143500Y401500D02*
X145953Y403953D01*
X133000Y402000D02*
Y411500D01*
Y402000D02*
X133500Y401500D01*
X123000Y413000D02*
X123500Y412500D01*
Y401500D02*
Y412500D01*
X151000Y461260D02*
X151350Y461610D01*
X165957D01*
X159500Y467000D02*
X162000Y464500D01*
X169398D01*
X169984Y461701D02*
Y463914D01*
X169398Y464500D02*
X169984Y463914D01*
X164500Y454000D02*
X168016Y457516D01*
Y461701D01*
X169984Y468299D02*
Y474744D01*
X171500Y476260D01*
X151670Y476330D02*
X154500Y473500D01*
X159000D01*
X151457Y480000D02*
X151670Y479787D01*
Y476330D02*
Y479787D01*
X159000Y473500D02*
X161500Y471000D01*
X144000Y480000D02*
X151457D01*
X201957Y469500D02*
X209000D01*
X201500Y469957D02*
X201957Y469500D01*
X166047Y468299D02*
Y470414D01*
X168047Y468299D02*
Y471243D01*
X165461Y471000D02*
X166047Y470414D01*
X161500Y471000D02*
X165461D01*
X164470Y474820D02*
X168047Y471243D01*
X171953Y468299D02*
X180697Y477043D01*
X187000D02*
X201500D01*
X180697D02*
X187000D01*
X165957Y461610D02*
X166047Y461701D01*
X158543Y479616D02*
Y480000D01*
X160406Y477754D02*
X161536D01*
X164470Y474820D02*
X164470D01*
X158543Y479616D02*
X160406Y477754D01*
X161536D02*
X164470Y474820D01*
D14*
X166047Y461701D02*
D03*
X168016D02*
D03*
X169984D02*
D03*
X171953D02*
D03*
Y468299D02*
D03*
X169984D02*
D03*
X166047D02*
D03*
X168016D02*
D03*
D15*
X133224Y475500D02*
D03*
X123776D02*
D03*
D16*
X187000Y477043D02*
D03*
Y469957D02*
D03*
X201500D02*
D03*
Y477043D02*
D03*
D17*
X158543Y480000D02*
D03*
X151457D02*
D03*
D18*
X171500Y476260D02*
D03*
Y483740D02*
D03*
X151000Y461260D02*
D03*
Y468740D02*
D03*
D19*
X123760Y451000D02*
D03*
X173740Y449000D02*
D03*
X166260D02*
D03*
X173740Y437500D02*
D03*
X166260D02*
D03*
X131240Y451000D02*
D03*
D30*
X123500Y401500D02*
D03*
X133500D02*
D03*
D31*
X143500D02*
D03*
D32*
X225000Y487500D02*
D03*
X228750Y480000D02*
D03*
X225000Y472500D02*
D03*
X228750Y465000D02*
D03*
X225000Y457500D02*
D03*
X228750Y450000D02*
D03*
X225000Y442500D02*
D03*
X228750Y435000D02*
D03*
X225000Y427500D02*
D03*
X228750Y420000D02*
D03*
X225000Y412500D02*
D03*
X217500Y487500D02*
D03*
X221250Y480000D02*
D03*
X217500Y472500D02*
D03*
X221250Y465000D02*
D03*
X217500Y457500D02*
D03*
X221250Y450000D02*
D03*
X217500Y442500D02*
D03*
X221250Y435000D02*
D03*
X217500Y427500D02*
D03*
X221250Y420000D02*
D03*
X217500Y412500D02*
D03*
X210000Y487500D02*
D03*
X213750Y480000D02*
D03*
Y450000D02*
D03*
X210000Y442500D02*
D03*
X213750Y435000D02*
D03*
X210000Y427500D02*
D03*
X213750Y420000D02*
D03*
X210000Y412500D02*
D03*
X202500Y487500D02*
D03*
Y457500D02*
D03*
Y442500D02*
D03*
X206250Y435000D02*
D03*
X202500Y427500D02*
D03*
Y412500D02*
D03*
X195000Y487500D02*
D03*
Y457500D02*
D03*
X198750Y450000D02*
D03*
Y435000D02*
D03*
X195000Y427500D02*
D03*
X198750Y420000D02*
D03*
X195000Y412500D02*
D03*
X187500Y487500D02*
D03*
Y457500D02*
D03*
X191250Y450000D02*
D03*
X187500Y442500D02*
D03*
Y427500D02*
D03*
X191250Y420000D02*
D03*
X187500Y412500D02*
D03*
X180000Y457500D02*
D03*
X183750Y450000D02*
D03*
X180000Y442500D02*
D03*
X183750Y435000D02*
D03*
Y420000D02*
D03*
X180000Y412500D02*
D03*
X176250Y420000D02*
D03*
X135000Y457500D02*
D03*
X138750Y450000D02*
D03*
X135000Y442500D02*
D03*
X138750Y435000D02*
D03*
X135000Y427500D02*
D03*
X138750Y420000D02*
D03*
D33*
X144000Y480000D02*
D03*
X121500Y461000D02*
D03*
X164000Y428500D02*
D03*
X209000Y469500D02*
D03*
M02*
