M48
;Layer_Color=9474304
;FILE_FORMAT=2:5
INCH
;TYPE=PLATED
T01F00S00C0.01400
T02F00S00C0.02800
T03F00S00C0.03543
%
T01
X0138750Y0420000
X0135000Y0427500
X0138750Y0435000
X0135000Y0442500
X0138750Y0450000
X0135000Y0457500
X0180000
X0187500
X0195000
X0202500
X0198750Y0450000
X0191250
X0183750
X0187500Y0442500
X0180000
X0183750Y0435000
X0187500Y0427500
X0195000
X0202500
X0210000
X0217500
X0225000
X0228750Y0435000
X0221250
X0213750
X0206250
X0198750
X0202500Y0442500
X0210000
X0217500
X0225000
X0228750Y0450000
X0221250
X0213750
X0217500Y0457500
X0225000
X0228750Y0465000
X0221250
Y0420000
X0228750
X0225000Y0412500
X0217500
X0210000
X0202500
X0195000
X0187500
X0180000
X0183750Y0420000
X0191250
X0198750
X0213750
X0176250
X0187500Y0487500
X0195000
X0202500
X0210000
X0217500
X0225000
X0228750Y0480000
X0221250
X0213750
X0217500Y0472500
X0225000
T02
X0121500Y0461000
X0164000Y0428500
X0209000Y0469500
X0144000Y0480000
T03
X0123500Y0401500
X0133500
X0143500
M30
