G04*
G04 #@! TF.GenerationSoftware,Altium Limited,Altium Designer,24.10.1 (45)*
G04*
G04 Layer_Physical_Order=2*
G04 Layer_Color=16711680*
%FSLAX25Y25*%
%MOIN*%
G70*
G04*
G04 #@! TF.SameCoordinates,3451842A-4D4D-41BC-B275-7F58107C68D5*
G04*
G04*
G04 #@! TF.FilePolarity,Positive*
G04*
G01*
G75*
%ADD10C,0.01000*%
%ADD30O,0.05906X0.07874*%
%ADD31R,0.05906X0.07874*%
%ADD32C,0.02500*%
%ADD33C,0.05000*%
G36*
X142500Y456000D02*
Y411000D01*
X140500Y409000D01*
X129500D01*
Y457000D01*
X131500Y459000D01*
X139500D01*
X142500Y456000D01*
D02*
G37*
G36*
X230250Y412500D02*
X227750Y410000D01*
X171250D01*
Y464500D01*
X171750Y465000D01*
X182250D01*
X182750Y465500D01*
Y472000D01*
X190750D01*
Y466000D01*
X191750Y465000D01*
X212750D01*
X212405Y468683D01*
X212500Y469039D01*
Y469961D01*
X212262Y470851D01*
X212190Y470975D01*
X211250Y481000D01*
X165750D01*
Y495000D01*
X167250Y496500D01*
X230250D01*
Y412500D01*
D02*
G37*
D10*
X201500Y477000D02*
X209000Y469500D01*
X178000Y477000D02*
X201500D01*
X164000Y428500D02*
Y463000D01*
X178000Y477000D01*
X148000Y454000D02*
X181000Y487000D01*
X138500Y454000D02*
X148000D01*
X144000Y469000D02*
Y480000D01*
X136000Y461000D02*
X144000Y469000D01*
X121500Y461000D02*
X136000D01*
D30*
X123500Y401500D02*
D03*
X133500D02*
D03*
D31*
X143500D02*
D03*
D32*
X225000Y487500D02*
D03*
X228750Y480000D02*
D03*
X225000Y472500D02*
D03*
X228750Y465000D02*
D03*
X225000Y457500D02*
D03*
X228750Y450000D02*
D03*
X225000Y442500D02*
D03*
X228750Y435000D02*
D03*
X225000Y427500D02*
D03*
X228750Y420000D02*
D03*
X225000Y412500D02*
D03*
X217500Y487500D02*
D03*
X221250Y480000D02*
D03*
X217500Y472500D02*
D03*
X221250Y465000D02*
D03*
X217500Y457500D02*
D03*
X221250Y450000D02*
D03*
X217500Y442500D02*
D03*
X221250Y435000D02*
D03*
X217500Y427500D02*
D03*
X221250Y420000D02*
D03*
X217500Y412500D02*
D03*
X210000Y487500D02*
D03*
X213750Y480000D02*
D03*
Y450000D02*
D03*
X210000Y442500D02*
D03*
X213750Y435000D02*
D03*
X210000Y427500D02*
D03*
X213750Y420000D02*
D03*
X210000Y412500D02*
D03*
X202500Y487500D02*
D03*
Y457500D02*
D03*
Y442500D02*
D03*
X206250Y435000D02*
D03*
X202500Y427500D02*
D03*
Y412500D02*
D03*
X195000Y487500D02*
D03*
Y457500D02*
D03*
X198750Y450000D02*
D03*
Y435000D02*
D03*
X195000Y427500D02*
D03*
X198750Y420000D02*
D03*
X195000Y412500D02*
D03*
X187500Y487500D02*
D03*
Y457500D02*
D03*
X191250Y450000D02*
D03*
X187500Y442500D02*
D03*
Y427500D02*
D03*
X191250Y420000D02*
D03*
X187500Y412500D02*
D03*
X180000Y457500D02*
D03*
X183750Y450000D02*
D03*
X180000Y442500D02*
D03*
X183750Y435000D02*
D03*
Y420000D02*
D03*
X180000Y412500D02*
D03*
X176250Y420000D02*
D03*
X135000Y457500D02*
D03*
X138750Y450000D02*
D03*
X135000Y442500D02*
D03*
X138750Y435000D02*
D03*
X135000Y427500D02*
D03*
X138750Y420000D02*
D03*
D33*
X144000Y480000D02*
D03*
X121500Y461000D02*
D03*
X164000Y428500D02*
D03*
X209000Y469500D02*
D03*
M02*
