G04*
G04 #@! TF.GenerationSoftware,Altium Limited,Altium Designer,24.10.1 (45)*
G04*
G04 Layer_Color=16711935*
%FSLAX25Y25*%
%MOIN*%
G70*
G04*
G04 #@! TF.SameCoordinates,3451842A-4D4D-41BC-B275-7F58107C68D5*
G04*
G04*
G04 #@! TF.FilePolarity,Negative*
G04*
G01*
G75*
%ADD26O,0.06706X0.08674*%
%ADD27R,0.06706X0.08674*%
%ADD28C,0.03300*%
%ADD29C,0.05800*%
D26*
X123500Y401500D02*
D03*
X133500D02*
D03*
D27*
X143500D02*
D03*
D28*
X225000Y487500D02*
D03*
X228750Y480000D02*
D03*
X225000Y472500D02*
D03*
X228750Y465000D02*
D03*
X225000Y457500D02*
D03*
X228750Y450000D02*
D03*
X225000Y442500D02*
D03*
X228750Y435000D02*
D03*
X225000Y427500D02*
D03*
X228750Y420000D02*
D03*
X225000Y412500D02*
D03*
X217500Y487500D02*
D03*
X221250Y480000D02*
D03*
X217500Y472500D02*
D03*
X221250Y465000D02*
D03*
X217500Y457500D02*
D03*
X221250Y450000D02*
D03*
X217500Y442500D02*
D03*
X221250Y435000D02*
D03*
X217500Y427500D02*
D03*
X221250Y420000D02*
D03*
X217500Y412500D02*
D03*
X210000Y487500D02*
D03*
X213750Y480000D02*
D03*
Y450000D02*
D03*
X210000Y442500D02*
D03*
X213750Y435000D02*
D03*
X210000Y427500D02*
D03*
X213750Y420000D02*
D03*
X210000Y412500D02*
D03*
X202500Y487500D02*
D03*
Y457500D02*
D03*
Y442500D02*
D03*
X206250Y435000D02*
D03*
X202500Y427500D02*
D03*
Y412500D02*
D03*
X195000Y487500D02*
D03*
Y457500D02*
D03*
X198750Y450000D02*
D03*
Y435000D02*
D03*
X195000Y427500D02*
D03*
X198750Y420000D02*
D03*
X195000Y412500D02*
D03*
X187500Y487500D02*
D03*
Y457500D02*
D03*
X191250Y450000D02*
D03*
X187500Y442500D02*
D03*
Y427500D02*
D03*
X191250Y420000D02*
D03*
X187500Y412500D02*
D03*
X180000Y457500D02*
D03*
X183750Y450000D02*
D03*
X180000Y442500D02*
D03*
X183750Y435000D02*
D03*
Y420000D02*
D03*
X180000Y412500D02*
D03*
X176250Y420000D02*
D03*
X135000Y457500D02*
D03*
X138750Y450000D02*
D03*
X135000Y442500D02*
D03*
X138750Y435000D02*
D03*
X135000Y427500D02*
D03*
X138750Y420000D02*
D03*
D29*
X144000Y480000D02*
D03*
X121500Y461000D02*
D03*
X164000Y428500D02*
D03*
X209000Y469500D02*
D03*
M02*
